<svg xmlns="http://www.w3.org/2000/svg" width="22" height="15.884" viewBox="0 0 22 15.884"><g transform="translate(-20.351 -19.237)"><path fill="#808080" d="M120.926,75.783a.508.508,0,0,1,.873,0l6.748,9.744h.667l-7.662-11.164a.216.216,0,0,0-.383,0l-7.695,11.164h.681Z" transform="translate(-90.003 -50.406)"/><path fill="#808080" d="M111,59.123a.508.508,0,0,1,.875,0l8.248,12.02h.717l-9.211-13.438a.24.24,0,0,0-.191-.12h0a.241.241,0,0,0-.192.12l-9.266,13.438h.715Z" transform="translate(-80.084 -36.022)"/><path fill="#808080" d="M112.617,56.1,102.073,40.813a.473.473,0,0,0-.819,0L90.7,56.1a.243.243,0,0,0-.014.249.2.2,0,0,0,.178.111h.518l9.844-14.294a.536.536,0,0,1,.438-.25h0a.535.535,0,0,1,.438.25l9.811,14.294h.541a.2.2,0,0,0,.177-.111A.243.243,0,0,0,112.617,56.1Z" transform="translate(-70.306 -21.34)"/><path fill="#808080" d="M141.118,107.706a.238.238,0,0,0-.189-.116h0a.24.24,0,0,0-.189.117l-4.6,6.6h1.125l3.233-4.687a.486.486,0,0,1,.856,0l3.233,4.687h1.125Z" transform="translate(-109.573 -79.19)"/><path fill="#808080" d="M130.456,92.448a.535.535,0,0,1,.434-.244h0a.535.535,0,0,1,.434.244l5.2,7.463h.734l-6.175-8.886a.215.215,0,0,0-.382,0l-6.188,8.887h.742Z" transform="translate(-99.534 -64.789)"/></g></svg>